<?xml version="1.0" standalone="no"?>
<!DOCTYPE svg PUBLIC "-//W3C//DTD SVG 20010904//EN"
 "http://www.w3.org/TR/2001/REC-SVG-20010904/DTD/svg10.dtd">
<svg version="1.0" xmlns="http://www.w3.org/2000/svg"
 width="1836.000000pt" height="1836.000000pt" viewBox="0 0 1836.000000 1836.000000"
 preserveAspectRatio="xMidYMid meet">
<metadata>
Created by potrace 1.11, written by Peter Selinger 2001-2013
</metadata>
<g transform="translate(0.000000,1836.000000) scale(0.100000,-0.100000)"
fill="#000000" stroke="none">
<path d="M7860 18354 c-466 -39 -708 -80 -1080 -186 -388 -109 -783 -279
-1170 -502 -118 -69 -476 -300 -490 -316 -3 -4 -32 -26 -65 -51 -89 -65 -295
-228 -335 -264 -19 -18 -80 -72 -135 -120 -144 -127 -380 -362 -498 -495 -55
-63 -114 -128 -129 -145 -15 -16 -40 -43 -56 -60 -15 -16 -55 -66 -89 -110
-34 -44 -74 -93 -88 -110 -15 -16 -48 -59 -73 -95 -25 -36 -51 -69 -57 -75
-15 -13 -164 -223 -251 -355 -24 -36 -48 -72 -54 -80 -40 -60 -200 -320 -200
-326 0 -3 -5 -10 -10 -17 -14 -16 -115 -191 -143 -247 -12 -25 -25 -47 -29
-50 -4 -3 -15 -24 -24 -45 -9 -22 -19 -42 -23 -45 -17 -13 -246 -489 -325
-675 -26 -60 -51 -117 -56 -126 -13 -25 -154 -382 -194 -494 -80 -221 -187
-548 -246 -755 -68 -236 -146 -539 -157 -605 -2 -16 -11 -53 -19 -81 -8 -28
-16 -66 -19 -84 -2 -19 -13 -74 -24 -124 -74 -332 -165 -924 -191 -1237 -5
-63 -17 -177 -25 -254 -8 -77 -17 -201 -20 -275 -3 -74 -10 -234 -15 -355 -13
-284 -13 -591 0 -880 5 -127 12 -282 14 -345 7 -201 66 -767 107 -1030 11 -69
21 -141 22 -160 5 -54 72 -421 108 -590 12 -52 22 -104 24 -115 1 -11 12 -60
24 -110 12 -49 31 -130 42 -180 12 -49 30 -119 40 -154 10 -35 19 -71 19 -79
0 -8 12 -53 26 -101 14 -47 34 -115 44 -151 92 -311 216 -686 268 -810 6 -14
25 -63 42 -110 17 -47 35 -94 40 -105 10 -21 75 -179 94 -230 6 -16 17 -39 23
-50 6 -11 28 -60 48 -110 44 -107 296 -619 307 -623 5 -2 8 -9 8 -15 0 -7 30
-64 66 -127 36 -63 82 -144 102 -180 20 -36 40 -67 44 -68 4 -2 8 -8 8 -13 0
-5 12 -28 27 -52 14 -23 36 -58 48 -77 69 -112 198 -306 275 -415 27 -38 57
-81 67 -95 32 -46 98 -135 104 -140 3 -3 40 -50 82 -105 286 -373 753 -856
1072 -1110 55 -44 109 -88 120 -98 11 -10 49 -39 85 -64 36 -25 76 -56 90 -68
56 -50 389 -266 551 -358 123 -70 275 -148 379 -196 63 -29 133 -61 155 -71
159 -74 585 -222 702 -244 12 -3 55 -13 95 -24 148 -40 425 -90 568 -103 52
-4 149 -13 215 -19 168 -15 522 -13 700 4 83 8 166 15 186 14 20 0 117 7 215
16 99 8 294 25 434 36 319 26 768 64 1055 90 121 10 266 22 322 25 56 3 128
10 160 16 32 5 100 14 151 19 119 13 390 69 567 117 327 90 627 203 920 348
253 125 332 168 495 270 161 100 433 285 450 305 3 4 43 35 90 70 47 35 110
85 140 111 30 26 93 80 140 119 127 108 552 530 659 655 51 61 110 128 130
150 21 22 64 75 96 117 33 43 63 78 67 78 4 0 8 7 8 15 0 7 6 18 13 22 7 4 37
42 67 83 29 41 56 77 60 80 7 5 80 109 148 210 20 30 40 57 45 58 4 2 7 10 7
18 0 8 4 14 9 14 4 0 19 20 32 45 13 25 27 45 31 45 5 0 8 4 8 9 0 8 58 102
80 128 6 7 10 15 10 17 0 3 19 36 43 74 57 92 55 89 142 239 136 238 375 711
437 867 10 28 30 73 42 100 46 101 63 142 81 191 10 28 22 54 27 60 4 5 8 16
8 25 0 8 6 27 14 42 8 14 19 43 26 65 7 21 19 54 27 73 29 68 32 75 38 100 4
14 13 39 20 55 14 32 127 369 149 445 59 198 78 264 81 278 2 9 13 46 24 81
12 35 21 71 21 80 0 10 8 44 19 77 10 32 28 100 39 149 61 263 73 318 91 405
11 52 29 145 40 205 11 61 29 160 41 221 11 60 22 132 25 160 3 27 14 105 24
174 53 342 109 981 113 1300 6 485 1 955 -12 1145 -27 366 -65 738 -101 970
-10 72 -21 150 -24 175 -5 51 -37 227 -66 370 -10 52 -19 103 -19 113 0 32
-105 487 -151 657 -12 41 -23 86 -25 100 -3 14 -14 54 -24 90 -11 36 -29 99
-41 140 -26 92 -42 141 -125 390 -36 107 -67 200 -68 205 -2 6 -6 17 -9 25 -4
8 -16 42 -27 75 -12 33 -25 69 -30 80 -5 11 -34 84 -64 162 -30 78 -64 161
-74 185 -11 24 -39 88 -62 143 -106 252 -339 717 -478 955 -12 19 -39 67 -61
105 -60 104 -75 129 -81 135 -3 3 -18 25 -32 50 -35 60 -292 443 -313 467 -9
10 -41 52 -70 93 -30 41 -65 88 -77 104 -13 15 -43 54 -68 86 -91 116 -289
348 -334 390 -25 24 -46 46 -46 50 0 5 -284 289 -428 427 -61 58 -153 138
-247 213 -44 35 -84 68 -90 74 -38 42 -383 283 -575 403 -203 127 -538 303
-688 362 -27 11 -69 29 -93 40 -24 11 -107 43 -184 71 -77 28 -149 55 -161 59
-49 21 -319 96 -504 140 -182 43 -566 98 -825 116 -84 6 -344 30 -705 66 -118
11 -244 23 -280 25 -36 2 -153 12 -260 23 -107 11 -285 27 -395 36 -110 9
-267 24 -350 32 -143 14 -569 25 -665 17z"/>
</g>
</svg>
